<?xml version="1.0" encoding="UTF-8" standalone="no"?>
<!-- Created with Inkscape (http://www.inkscape.org/) -->

<svg
   xmlns:dc="http://purl.org/dc/elements/1.1/"
   xmlns:cc="http://creativecommons.org/ns#"
   xmlns:rdf="http://www.w3.org/1999/02/22-rdf-syntax-ns#"
   xmlns:svg="http://www.w3.org/2000/svg"
   xmlns="http://www.w3.org/2000/svg"
   xmlns:xlink="http://www.w3.org/1999/xlink"
   xmlns:sodipodi="http://sodipodi.sourceforge.net/DTD/sodipodi-0.dtd"
   xmlns:inkscape="http://www.inkscape.org/namespaces/inkscape"
   width="32"
   height="32"
   id="svg2"
   version="1.1"
   inkscape:version="0.47pre4 r22446"
   sodipodi:docname="feedie.svg"
   inkscape:export-filename="/home/kr/feedie.png"
   inkscape:export-xdpi="1440"
   inkscape:export-ydpi="1440">
  <defs
     id="defs4">
    <linearGradient
       id="linearGradient3626">
      <stop
         style="stop-color:#38700e;stop-opacity:1;"
         offset="0"
         id="stop3628" />
      <stop
         style="stop-color:#194506;stop-opacity:1;"
         offset="1"
         id="stop3630" />
    </linearGradient>
    <linearGradient
       id="linearGradient3610">
      <stop
         id="stop3612"
         offset="0"
         style="stop-color:#5bd229;stop-opacity:1;" />
      <stop
         style="stop-color:#378218;stop-opacity:1;"
         offset="1"
         id="stop3620" />
    </linearGradient>
    <linearGradient
       id="linearGradient3602">
      <stop
         style="stop-color:#0000ff;stop-opacity:1;"
         offset="0"
         id="stop3604" />
      <stop
         style="stop-color:#0000ff;stop-opacity:0;"
         offset="1"
         id="stop3606" />
    </linearGradient>
    <inkscape:perspective
       sodipodi:type="inkscape:persp3d"
       inkscape:vp_x="0 : 526.18109 : 1"
       inkscape:vp_y="0 : 1000 : 0"
       inkscape:vp_z="744.09448 : 526.18109 : 1"
       inkscape:persp3d-origin="372.04724 : 350.78739 : 1"
       id="perspective10" />
    <radialGradient
       inkscape:collect="always"
       xlink:href="#linearGradient3610"
       id="radialGradient3616"
       cx="-0.68774885"
       cy="16"
       fx="-0.68774885"
       fy="16"
       r="13.5"
       gradientUnits="userSpaceOnUse"
       gradientTransform="matrix(1.4814815e-8,2.7368508,-2.7368508,1.4814815e-8,60.289613,1014.7445)" />
    <linearGradient
       inkscape:collect="always"
       xlink:href="#linearGradient3626"
       id="linearGradient3632"
       x1="16"
       y1="2"
       x2="16"
       y2="31"
       gradientUnits="userSpaceOnUse"
       gradientTransform="translate(0.5,1020.8622)" />
    <inkscape:perspective
       id="perspective3678"
       inkscape:persp3d-origin="0.5 : 0.33333333 : 1"
       inkscape:vp_z="1 : 0.5 : 1"
       inkscape:vp_y="0 : 1000 : 0"
       inkscape:vp_x="0 : 0.5 : 1"
       sodipodi:type="inkscape:persp3d" />
    <radialGradient
       inkscape:collect="always"
       xlink:href="#linearGradient3610-1"
       id="radialGradient3616-5"
       cx="-0.68774885"
       cy="16"
       fx="-0.68774885"
       fy="16"
       r="13.5"
       gradientUnits="userSpaceOnUse"
       gradientTransform="matrix(1.4814815e-8,2.7368508,-2.7368508,1.4814815e-8,59.789613,-6.1177342)" />
    <linearGradient
       id="linearGradient3610-1">
      <stop
         id="stop3612-9"
         offset="0"
         style="stop-color:#5bd229;stop-opacity:1;" />
      <stop
         style="stop-color:#378218;stop-opacity:1;"
         offset="1"
         id="stop3620-4" />
    </linearGradient>
    <linearGradient
       inkscape:collect="always"
       xlink:href="#linearGradient3626-5"
       id="linearGradient3632-6"
       x1="16"
       y1="2"
       x2="16"
       y2="31"
       gradientUnits="userSpaceOnUse" />
    <linearGradient
       id="linearGradient3626-5">
      <stop
         style="stop-color:#389d0e;stop-opacity:0.5258621;"
         offset="0"
         id="stop3628-0" />
      <stop
         style="stop-color:#194506;stop-opacity:0.51764709;"
         offset="1"
         id="stop3630-1" />
    </linearGradient>
    <radialGradient
       r="13.5"
       fy="16"
       fx="-0.68774885"
       cy="16"
       cx="-0.68774885"
       gradientTransform="matrix(1.4814815e-8,2.7368508,-2.7368508,1.4814815e-8,57.543393,1001.9767)"
       gradientUnits="userSpaceOnUse"
       id="radialGradient3691"
       xlink:href="#linearGradient3610-1"
       inkscape:collect="always" />
    <linearGradient
       gradientTransform="translate(-2.2462203,1008.0944)"
       y2="31"
       x2="16"
       y1="2"
       x1="16"
       gradientUnits="userSpaceOnUse"
       id="linearGradient3693"
       xlink:href="#linearGradient3626-5"
       inkscape:collect="always" />
    <inkscape:perspective
       id="perspective3618"
       inkscape:persp3d-origin="0.5 : 0.33333333 : 1"
       inkscape:vp_z="1 : 0.5 : 1"
       inkscape:vp_y="0 : 1000 : 0"
       inkscape:vp_x="0 : 0.5 : 1"
       sodipodi:type="inkscape:persp3d" />
    <radialGradient
       inkscape:collect="always"
       xlink:href="#linearGradient3610-5"
       id="radialGradient3616-8"
       cx="-0.68774885"
       cy="16"
       fx="-0.68774885"
       fy="16"
       r="13.5"
       gradientUnits="userSpaceOnUse"
       gradientTransform="matrix(1.4814815e-8,2.7368508,-2.7368508,1.4814815e-8,60.289613,1014.7445)" />
    <linearGradient
       id="linearGradient3610-5">
      <stop
         id="stop3612-92"
         offset="0"
         style="stop-color:#5bd229;stop-opacity:1;" />
      <stop
         style="stop-color:#378218;stop-opacity:1;"
         offset="1"
         id="stop3620-47" />
    </linearGradient>
    <linearGradient
       inkscape:collect="always"
       xlink:href="#linearGradient3626-4"
       id="linearGradient3632-2"
       x1="16"
       y1="2"
       x2="16"
       y2="31"
       gradientUnits="userSpaceOnUse"
       gradientTransform="translate(0.5,1020.8622)" />
    <linearGradient
       id="linearGradient3626-4">
      <stop
         style="stop-color:#38700e;stop-opacity:1;"
         offset="0"
         id="stop3628-7" />
      <stop
         style="stop-color:#194506;stop-opacity:1;"
         offset="1"
         id="stop3630-7" />
    </linearGradient>
    <filter
       inkscape:collect="always"
       id="filter3704">
      <feGaussianBlur
         inkscape:collect="always"
         stdDeviation="0.625"
         id="feGaussianBlur3706" />
    </filter>
    <inkscape:perspective
       id="perspective3770"
       inkscape:persp3d-origin="0.5 : 0.33333333 : 1"
       inkscape:vp_z="1 : 0.5 : 1"
       inkscape:vp_y="0 : 1000 : 0"
       inkscape:vp_x="0 : 0.5 : 1"
       sodipodi:type="inkscape:persp3d" />
    <inkscape:perspective
       id="perspective3798"
       inkscape:persp3d-origin="0.5 : 0.33333333 : 1"
       inkscape:vp_z="1 : 0.5 : 1"
       inkscape:vp_y="0 : 1000 : 0"
       inkscape:vp_x="0 : 0.5 : 1"
       sodipodi:type="inkscape:persp3d" />
    <filter
       inkscape:collect="always"
       id="filter3848">
      <feGaussianBlur
         inkscape:collect="always"
         stdDeviation="0.115625"
         id="feGaussianBlur3850" />
    </filter>
    <clipPath
       clipPathUnits="userSpaceOnUse"
       id="clipPath3857">
      <path
         sodipodi:nodetypes="ccccccccccccccccc"
         id="path3859"
         d="m 38.5,1025.8622 c 0,1 0,2.5 0,3.5 0,0.5 1,0.5 1,0 0,-1 -0.103692,-2.5425 0,-3.5 0,-0.5 1,-0.5 1,0 0,1 0,2.5 0,3.5 0,0.5 1,0.5 1,0 0,-1 0,-2.5 0,-3.5 0,-0.5 1,-0.5 1,0 0,2 0,4 0,6 0,1 -1.5,1 -1.5,2 0,2 0,6 0,9 0,1 -2,1 -2,0 0,-3 0,-6 0,-9 0,-1 -1.5,-1 -1.5,-2 0,-2 0,-4 0,-6 0,-0.5 1,-0.5 1,0 z"
         style="fill:#ffffff;fill-opacity:1;stroke:none" />
    </clipPath>
  </defs>
  <sodipodi:namedview
     id="base"
     pagecolor="#828282"
     bordercolor="#666666"
     borderopacity="1.0"
     inkscape:pageopacity="0"
     inkscape:pageshadow="2"
     inkscape:zoom="28.9375"
     inkscape:cx="17.007854"
     inkscape:cy="16.034557"
     inkscape:document-units="px"
     inkscape:current-layer="layer1"
     showgrid="true"
     inkscape:showpageshadow="false"
     inkscape:window-width="1600"
     inkscape:window-height="1146"
     inkscape:window-x="0"
     inkscape:window-y="25"
     inkscape:window-maximized="1"
     showguides="true">
    <inkscape:grid
       type="xygrid"
       id="grid2826"
       empspacing="2"
       visible="true"
       enabled="true"
       snapvisiblegridlinesonly="true"
       spacingx="0.5px"
       spacingy="0.5px"
       dotted="true" />
    <inkscape:grid
       type="xygrid"
       id="grid3739"
       empspacing="1"
       visible="true"
       enabled="true"
       snapvisiblegridlinesonly="true"
       spacingx="8px"
       spacingy="8px" />
  </sodipodi:namedview>
  <metadata
     id="metadata7">
    <rdf:RDF>
      <cc:Work
         rdf:about="">
        <dc:format>image/svg+xml</dc:format>
        <dc:type
           rdf:resource="http://purl.org/dc/dcmitype/StillImage" />
        <dc:title></dc:title>
      </cc:Work>
    </rdf:RDF>
  </metadata>
  <g
     inkscape:label="Layer 1"
     inkscape:groupmode="layer"
     id="layer1"
     transform="translate(0,-1020.3622)">
    <rect
       style="opacity:0.5;fill:#000000;fill-opacity:1;fill-rule:evenodd;stroke:#000000;stroke-width:1;stroke-linecap:butt;stroke-linejoin:miter;stroke-miterlimit:4;stroke-opacity:1;stroke-dasharray:none;filter:url(#filter3704)"
       id="rect2828-9"
       width="25"
       height="25"
       x="3.5"
       y="1025.1713"
       rx="5"
       ry="5" />
    <rect
       style="fill:url(#radialGradient3616);fill-opacity:1;fill-rule:evenodd;stroke:url(#linearGradient3632);stroke-width:1;stroke-linecap:butt;stroke-linejoin:miter;stroke-miterlimit:4;stroke-opacity:1;stroke-dasharray:none"
       id="rect2828"
       width="25"
       height="25"
       x="3.5"
       y="1023.8622"
       rx="4"
       ry="4"
       sodipodi:insensitive="true" />
    <path
       style="fill:#ffffff;stroke:none;stroke-width:0.10000000000000001;stroke-linecap:butt;stroke-linejoin:miter;stroke-opacity:1;stroke-miterlimit:4;stroke-dasharray:none;fill-opacity:1"
       d="m 8,1029.3622 c 0,1 0,2.5 0,3.5 0,0.5 1,0.5 1,0 0,-1 0,-2.5 0,-3.5 0,-0.5 1,-0.5 1,0 0,1 0,2.5 0,3.5 0,0.5 1,0.5 1,0 0,-1 0,-2.5 0,-3.5 0,-0.5 1,-0.5 1,0 0,2 0,4 0,6 0,1.5 -1,0.5 -1,2 0,2 0,6 0,9 0,1.5 -3,1.5 -3,0 0,-3 0,-6 0,-9 0,-1.5 -1,-0.5 -1,-2 0,-2 0,-4 0,-6 0,-0.5 1,-0.5 1,0 z"
       id="path3708"
       sodipodi:nodetypes="ccccccccccccccccc"
       clip-path="none" />
    <path
       style="fill:#ffffff;fill-opacity:1;stroke:none"
       d="m 18,1046.3622 c 0,1.5 -3,1.5 -3,0 0,-1.5 0,-7.5 0,-9 0,-1.5 -1,-0.6268 -1,-2 0,-1.5 0,-5.3326 0,-7 0,-1.5 4,-3 4,-1.5 0,1.5 0,18 0,19.5 z"
       id="path3723"
       sodipodi:nodetypes="czzzzzz" />
    <rect
       style="fill:#0000ff;fill-opacity:1;stroke:#000000;stroke-opacity:1"
       id="rect3788"
       width="22"
       height="27.5"
       x="33"
       y="1021.8622"
       rx="4"
       ry="4"
       sodipodi:insensitive="true" />
    <path
       style="fill:#ffffff;stroke:none;stroke-width:0.10000000000000001;stroke-linecap:butt;stroke-linejoin:miter;stroke-miterlimit:4;stroke-opacity:1;stroke-dasharray:none;fill-opacity:1"
       d="m 22.5,1029.3622 c 1.5,0 3,1.5 3,3.5 0,1.9657 -1.5,2 -1.5,4.5 0,2.4625 0,7.4672 0,9 0,1.5 -3,1.5 -3,0 0,-1.5673 0,-6.3434 0,-9 0,-2.5 -1.5,-2.5467 -1.5,-4.5 0,-2 1.529055,-3.5 3,-3.5 z"
       id="path3732"
       sodipodi:nodetypes="czzzzzzz" />
  </g>
</svg>
